# xmcd CD database file
#
# Track frame offsets:
#	150
#	13733
#	29802
#	40857
#	57834
#	71548
#	84066
#	97948
#	109895
#	123862
#	136230
#	149493
#	163598
#	177860
#	193381
#	209637
#	221143
#	236897
#	248903
#	265123
#	283922
#	300137
#	316762
#
# Disc length: 4546 seconds
#
# Revision: 0
# Processed by: cddbd v1.5.2PL0 Copyright (c) Steve Scherf et al.
# Submitted via: CDex 1.70beta2
#
DISCID=5211c017
DTITLE=Johnny Mathis - The Ultimate Collection
DYEAR=2011
DGENRE=Jazz
TTITLE0=Johnny Mathis and Denice Williams - Too Much, Too Little, Too Late
TTITLE1=Johnny Mathis - Misty
TTITLE2=Johnny Mathis - The Twelfth Of Never
TTITLE3=Johnny Mathis - Maria
TTITLE4=Johnny Mathis - Chances Are
TTITLE5=Johnny Mathis - A Certain Smile
TTITLE6=Johnny Mathis - It's Not For Me To Say
TTITLE7=Johnny Mathis - Teacher, Teacher
TTITLE8=Johnny Mathis - My Love For You
TTITLE9=Johnny Mathis - The Best Of Everything
TTITLE10=Johnny Mathis - Someone
TTITLE11=Johnny Mathis - You Are Beautiful
TTITLE12=Johnny Mathis - What Will Mary Say
TTITLE13=Johnny Mathis - Crazy
TTITLE14=Johnny Mathis - Love Me Tender
TTITLE15=Johnny Mathis - When Will I See You Again?
TTITLE16=Johnny Mathis - I'm Stone In Love With You
TTITLE17=Johnny Mathis and Denice Williams - You're All I Need To Get By
TTITLE18=Johnny Mathis - Gone, Gone, Gone
TTITLE19=Johnny Mathis - Something To Sing About
TTITLE20=Johnny Mathis - The First Time Ever I Saw Your Face
TTITLE21=Johnny Mathis - When A Child Is Born
TTITLE22=Johnny Mathis - I Love My Lady
EXTD=YEAR: 2011
EXTT0=
EXTT1=
EXTT2=
EXTT3=
EXTT4=
EXTT5=
EXTT6=
EXTT7=
EXTT8=
EXTT9=
EXTT10=
EXTT11=
EXTT12=
EXTT13=
EXTT14=
EXTT15=
EXTT16=
EXTT17=
EXTT18=
EXTT19=
EXTT20=
EXTT21=
EXTT22=
PLAYORDER=
